<svg width="15" height="22" viewBox="0 0 15 22" fill="none" xmlns="http://www.w3.org/2000/svg">
<path opacity="0.1" d="M10.3846 19.6841C10.3846 20.2983 10.1415 20.8874 9.70871 21.3217C9.27593 21.756 8.68896 22 8.07692 22H6.92308C6.31104 22 5.72407 21.756 5.29129 21.3217C4.85852 20.8874 4.61538 20.2983 4.61538 19.6841H5.76923C5.76923 19.9912 5.8908 20.2857 6.10718 20.5029C6.32357 20.7201 6.61706 20.8421 6.92308 20.8421H8.07692C8.38294 20.8421 8.67643 20.7201 8.89281 20.5029C9.1092 20.2857 9.23077 19.9912 9.23077 19.6841H10.3846ZM11.5385 16.2103C11.5385 16.8245 11.2953 17.4136 10.8626 17.8479C10.4298 18.2822 9.84281 18.5262 9.23077 18.5262H5.76923C5.15719 18.5262 4.57022 18.2822 4.13745 17.8479C3.70467 17.4136 3.46154 16.8245 3.46154 16.2103V13.8689C2.09466 12.9924 1.0478 11.6947 0.477979 10.1706C-0.0918434 8.64646 -0.153915 6.97801 0.301075 5.41548C0.756065 3.85295 1.70359 2.48057 3.00153 1.50417C4.29948 0.527776 5.87788 0 7.5 0C9.12212 0 10.7005 0.527776 11.9985 1.50417C13.2964 2.48057 14.2439 3.85295 14.6989 5.41548C15.1539 6.97801 15.0918 8.64646 14.522 10.1706C13.9522 11.6947 12.9053 12.9924 11.5385 13.8689V16.2103ZM4.61538 16.2103C4.61538 16.5174 4.73695 16.8119 4.95334 17.0291C5.16973 17.2462 5.46321 17.3682 5.76923 17.3682H9.23077C9.53679 17.3682 9.83027 17.2462 10.0467 17.0291C10.263 16.8119 10.3846 16.5174 10.3846 16.2103V13.1996C11.654 12.5496 12.6684 11.4896 13.2645 10.1905C13.8605 8.89142 14.0035 7.42881 13.6703 6.03824C13.3372 4.64767 12.5474 3.41011 11.4281 2.52486C10.3088 1.63962 8.92513 1.15823 7.5 1.15823C6.07487 1.15823 4.69123 1.63962 3.57191 2.52486C2.4526 3.41011 1.66277 4.64767 1.32965 6.03824C0.996532 7.42881 1.13951 8.89142 1.73554 10.1905C2.33158 11.4896 3.34599 12.5496 4.61538 13.1996V16.2103ZM3.61038 8.24481L6.34615 5.49933L8.65385 7.81521L10.6731 5.78881L11.4888 6.60748L8.65385 9.45254L6.34615 7.13666L4.42615 9.06347L3.61038 8.24481Z" fill="white"/>
</svg>
