<svg width="18" height="26" viewBox="0 0 18 26" fill="none" xmlns="http://www.w3.org/2000/svg">
<path d="M10.7617 1.625H10.7873H10.7617ZM10.7617 1.625L8.9208 11.248L15.6197 11.2734L6.51739 24.3242L8.3583 13.7363L1.65944 13.7109L10.7617 1.625ZM10.7617 0H10.6339C10.4975 0.0169271 10.3782 0.0465495 10.2759 0.0888672C10.1736 0.131185 10.0586 0.194661 9.93075 0.279297C9.8029 0.363932 9.68785 0.465495 9.58557 0.583984C9.56853 0.600911 9.55575 0.617839 9.54722 0.634766C9.5387 0.651693 9.52592 0.66862 9.50887 0.685547L0.329892 12.7207C-0.0621535 13.2624 -0.104767 13.8294 0.202051 14.4219C0.253187 14.5234 0.317108 14.6208 0.393812 14.7139C0.470517 14.807 0.555744 14.8916 0.649494 14.9678C0.743244 15.0439 0.845517 15.1074 0.956312 15.1582C1.06711 15.209 1.18216 15.2471 1.30148 15.2725C1.4208 15.2979 1.54012 15.3105 1.65944 15.3105L6.38955 15.3359L4.88103 24.0449C4.81285 24.4173 4.87251 24.7686 5.06001 25.0986C5.24751 25.4287 5.51171 25.6699 5.85262 25.8223C5.95489 25.873 6.06143 25.9069 6.17222 25.9238C6.28302 25.9408 6.39807 25.9492 6.51739 25.9492C7.01171 25.9492 7.42932 25.7292 7.77023 25.2891L16.9492 12.2383C17.3413 11.6966 17.3839 11.1296 17.0771 10.5371C16.7702 9.94466 16.2844 9.64844 15.6197 9.64844H10.8896L12.3725 2.00586C12.3896 1.93815 12.4023 1.87467 12.4109 1.81543C12.4194 1.75618 12.4236 1.69271 12.4236 1.625C12.4236 1.47266 12.4023 1.32878 12.3597 1.19336C12.3171 1.05794 12.2617 0.93099 12.1935 0.8125C12.1253 0.69401 12.0444 0.583984 11.9506 0.482422C11.8569 0.380859 11.7503 0.296224 11.631 0.228516C11.5117 0.160807 11.3839 0.105794 11.2475 0.0634766C11.1111 0.0211589 10.9748 0 10.8384 0H10.7617Z" fill="#FFA114"/>
</svg>
