<svg width="20" height="20" viewBox="0 0 20 20" fill="none" xmlns="http://www.w3.org/2000/svg">
<path d="M3.375 0H15.2843L19.125 3.84075V15.75C19.125 16.6451 18.7694 17.5036 18.1365 18.1365C17.5036 18.7694 16.6451 19.125 15.75 19.125H3.375C2.47989 19.125 1.62145 18.7694 0.988515 18.1365C0.355579 17.5036 0 16.6451 0 15.75V3.375C0 2.47989 0.355579 1.62145 0.988515 0.988515C1.62145 0.355579 2.47989 0 3.375 0ZM3.375 1.125C2.77826 1.125 2.20597 1.36205 1.78401 1.78401C1.36205 2.20597 1.125 2.77826 1.125 3.375V15.75C1.125 16.3467 1.36205 16.919 1.78401 17.341C2.20597 17.7629 2.77826 18 3.375 18H15.75C16.3467 18 16.919 17.7629 17.341 17.341C17.7629 16.919 18 16.3467 18 15.75V4.40325L14.7218 1.125H13.5V6.75H3.375V1.125ZM4.5 1.125V5.625H12.375V1.125H4.5ZM10.125 9C11.0201 9 11.8786 9.35558 12.5115 9.98851C13.1444 10.6214 13.5 11.4799 13.5 12.375C13.5 13.2701 13.1444 14.1286 12.5115 14.7615C11.8786 15.3944 11.0201 15.75 10.125 15.75C9.22989 15.75 8.37145 15.3944 7.73851 14.7615C7.10558 14.1286 6.75 13.2701 6.75 12.375C6.75 11.4799 7.10558 10.6214 7.73851 9.98851C8.37145 9.35558 9.22989 9 10.125 9ZM10.125 10.125C9.52826 10.125 8.95597 10.3621 8.53401 10.784C8.11205 11.206 7.875 11.7783 7.875 12.375C7.875 12.9717 8.11205 13.544 8.53401 13.966C8.95597 14.3879 9.52826 14.625 10.125 14.625C10.7217 14.625 11.294 14.3879 11.716 13.966C12.1379 13.544 12.375 12.9717 12.375 12.375C12.375 11.7783 12.1379 11.206 11.716 10.784C11.294 10.3621 10.7217 10.125 10.125 10.125Z" fill="#00A3FF"/>
</svg>
