<svg width="21" height="21" viewBox="0 0 21 21" fill="none" xmlns="http://www.w3.org/2000/svg">
<path d="M11.0526 0H12.1579C14.503 0 16.752 0.931576 18.4102 2.58979C20.0684 4.24801 21 6.49703 21 8.8421V9.94737H11.0526V0ZM12.1579 8.8421H19.8947C19.8947 6.79017 19.0796 4.82227 17.6287 3.37133C16.1777 1.92039 14.2098 1.10526 12.1579 1.10526V8.8421ZM8.84211 12.1579H17.6842C17.6842 13.9067 17.1656 15.6162 16.194 17.0703C15.2225 18.5244 13.8415 19.6577 12.2258 20.3269C10.6102 20.9962 8.8323 21.1713 7.1171 20.8301C5.4019 20.4889 3.82639 19.6468 2.5898 18.4102C1.35321 17.1736 0.511077 15.5981 0.169903 13.8829C-0.171272 12.1677 0.00383112 10.3898 0.673069 8.77417C1.34231 7.15848 2.47562 5.77754 3.9297 4.80595C5.38377 3.83437 7.09331 3.31579 8.84211 3.31579V12.1579ZM7.73685 13.2632V4.49842C5.80379 4.78168 4.04939 5.78557 2.82575 7.30862C1.60212 8.83166 0.999808 10.7612 1.1397 12.7098C1.27959 14.6585 2.15133 16.4822 3.57997 17.8148C5.00861 19.1475 6.88841 19.8905 8.84211 19.8947C10.7028 19.895 12.5013 19.2247 13.9081 18.0068C15.3148 16.7888 16.2355 15.1048 16.5016 13.2632H7.73685Z" fill="white"/>
</svg>
