<svg width="33" height="25" viewBox="0 0 33 25" fill="none" xmlns="http://www.w3.org/2000/svg">
<path opacity="0.1" d="M13.4226 14.8177C13.4226 15.0951 13.3406 15.3664 13.1869 15.5971C13.0332 15.8278 12.8147 16.0076 12.5591 16.1138C12.3035 16.22 12.0223 16.2477 11.7509 16.1936C11.4796 16.1395 11.2304 16.0059 11.0347 15.8097C10.8391 15.6135 10.7059 15.3635 10.6519 15.0914C10.5979 14.8192 10.6256 14.5371 10.7315 14.2808C10.8374 14.0244 11.0167 13.8053 11.2467 13.6512C11.4767 13.497 11.7472 13.4148 12.0238 13.4148C12.3948 13.4148 12.7506 13.5626 13.0129 13.8257C13.2753 14.0888 13.4226 14.4456 13.4226 14.8177ZM20.9762 13.4148C20.6995 13.4148 20.4291 13.497 20.199 13.6512C19.969 13.8053 19.7897 14.0244 19.6839 14.2808C19.578 14.5371 19.5503 14.8192 19.6043 15.0914C19.6582 15.3635 19.7914 15.6135 19.9871 15.8097C20.1827 16.0059 20.4319 16.1395 20.7033 16.1936C20.9746 16.2477 21.2559 16.22 21.5115 16.1138C21.7671 16.0076 21.9855 15.8278 22.1392 15.5971C22.2929 15.3664 22.375 15.0951 22.375 14.8177C22.375 14.4456 22.2276 14.0888 21.9653 13.8257C21.703 13.5626 21.3472 13.4148 20.9762 13.4148ZM32.3201 20.5731C30.035 22.5652 26.958 24.0763 23.422 24.9431C22.9919 25.0496 22.5384 25.0053 22.1369 24.8177C21.7353 24.6301 21.4098 24.3103 21.2144 23.9116L19.7988 21.0724C18.7042 21.2048 17.6026 21.2712 16.5 21.271C15.3974 21.2711 14.2958 21.2047 13.2012 21.0722L11.7856 23.9117C11.5902 24.3105 11.2647 24.6302 10.8631 24.8178C10.4616 25.0055 10.0081 25.0497 9.57803 24.9433C6.04186 24.0763 2.96519 22.5652 0.680103 20.5732C0.394081 20.3247 0.185479 19.9988 0.0792356 19.6345C-0.0270075 19.2702 -0.0263964 18.8829 0.0809957 18.519L4.83329 2.63159C4.9166 2.35131 5.06141 2.09329 5.2571 1.87646C5.4528 1.65963 5.69441 1.48949 5.96422 1.37852C7.35267 0.808401 8.78862 0.362414 10.2553 0.045756C10.7279 -0.0583731 11.2221 0.0166415 11.6428 0.256338C12.0635 0.496035 12.3808 0.883441 12.5336 1.34387L13.4316 4.04587C15.4709 3.81799 17.5291 3.81799 19.5684 4.04587L20.4665 1.34387C20.6193 0.883543 20.9366 0.496238 21.3572 0.256561C21.7778 0.0168851 22.272 -0.0582053 22.7445 0.045756C24.2114 0.362461 25.6475 0.808495 27.0361 1.37866C27.3058 1.48958 27.5474 1.65968 27.7431 1.87646C27.9387 2.09325 28.0835 2.35123 28.1667 2.63145L32.919 18.5191C33.0264 18.883 33.027 19.2702 32.9208 19.6345C32.8146 19.9987 32.606 20.3246 32.3201 20.5731ZM31.3114 19.0028L26.5588 3.11518C26.5468 3.0748 26.5258 3.03765 26.4976 3.00645C26.4693 2.97526 26.4345 2.95081 26.3956 2.9349C25.0988 2.40267 23.7576 1.9864 22.3877 1.69094C22.3198 1.67564 22.2486 1.68609 22.1878 1.72028C22.1271 1.75446 22.0811 1.80998 22.0587 1.87613L21.2559 4.29278C22.2718 4.47293 23.2742 4.7221 24.2564 5.03856C24.362 5.07203 24.4599 5.12614 24.5446 5.19775C24.6293 5.26937 24.699 5.35709 24.7497 5.45585C24.8004 5.5546 24.8311 5.66245 24.84 5.77317C24.849 5.88388 24.836 5.99528 24.8018 6.10094C24.7676 6.2066 24.7129 6.30443 24.6409 6.38879C24.5688 6.47315 24.4808 6.54237 24.382 6.59247C24.2831 6.64256 24.1754 6.67254 24.0649 6.68067C23.9545 6.6888 23.8435 6.67492 23.7384 6.63984C21.5648 5.93235 19.0618 5.55848 16.5 5.55848C13.9385 5.55848 11.4356 5.93235 9.26162 6.6397C9.15654 6.67478 9.04557 6.68866 8.93511 6.68053C8.82465 6.6724 8.71689 6.64242 8.61803 6.59233C8.51918 6.54223 8.43119 6.47301 8.35914 6.38865C8.28709 6.30429 8.2324 6.20646 8.19822 6.1008C8.16404 5.99514 8.15105 5.88374 8.16 5.77303C8.16895 5.66231 8.19966 5.55446 8.25036 5.45571C8.30107 5.35695 8.37076 5.26923 8.45542 5.19761C8.54008 5.126 8.63804 5.07189 8.74364 5.03842C9.72585 4.72202 10.7283 4.4729 11.7442 4.29278L10.9412 1.87627C10.9187 1.81012 10.8727 1.75461 10.812 1.7204C10.7512 1.6862 10.68 1.67571 10.612 1.69094C9.24226 1.98641 7.90119 2.40263 6.60445 2.93476C6.56548 2.9507 6.53056 2.97519 6.50227 3.00643C6.47397 3.03768 6.45301 3.07488 6.44093 3.11532L1.68878 19.0027C1.67386 19.0563 1.67464 19.1131 1.69104 19.1663C1.70743 19.2195 1.73875 19.2668 1.78124 19.3026C3.86532 21.1194 6.69929 22.5043 9.97669 23.3079C10.0372 23.3213 10.1005 23.3138 10.1563 23.2867C10.2121 23.2596 10.2573 23.2145 10.2844 23.1587L11.4596 20.8012C10.5408 20.6267 9.63384 20.395 8.74378 20.1076C8.63818 20.0741 8.54022 20.02 8.45556 19.9484C8.3709 19.8768 8.30121 19.7891 8.2505 19.6903C8.1998 19.5916 8.16909 19.4837 8.16014 19.373C8.15119 19.2623 8.16418 19.1509 8.19836 19.0452C8.23254 18.9396 8.28723 18.8417 8.35928 18.7574C8.43133 18.673 8.51932 18.6038 8.61817 18.5537C8.71703 18.5036 8.82479 18.4736 8.93525 18.4655C9.04571 18.4574 9.15668 18.4712 9.26176 18.5063C11.4352 19.2137 13.9382 19.5876 16.5 19.5876C19.0618 19.5876 21.5647 19.2137 23.7381 18.5063C23.9497 18.4381 24.1795 18.4568 24.3774 18.5583C24.5752 18.6598 24.7248 18.8358 24.7934 19.0478C24.862 19.2598 24.8439 19.4904 24.7432 19.6891C24.6426 19.8878 24.4674 20.0383 24.2562 20.1076C23.3662 20.395 22.4592 20.6267 21.5405 20.8012L22.7157 23.1587C22.7429 23.2146 22.788 23.2597 22.8438 23.2868C22.8996 23.3139 22.9629 23.3214 23.0235 23.3081C26.3009 22.5043 29.1348 21.1194 31.2189 19.3026C31.2613 19.2668 31.2926 19.2195 31.3089 19.1663C31.3253 19.1132 31.3261 19.0564 31.3112 19.0028H31.3114Z" fill="white"/>
</svg>
