<svg width="16" height="25" viewBox="0 0 16 25" fill="none" xmlns="http://www.w3.org/2000/svg">
<path opacity="0.1" d="M9.9932 1.70211H10.0157H9.9932ZM9.9932 1.70211L8.3707 10.5269L14.2748 10.5502L6.25244 22.5183L7.87494 12.8087L1.97086 12.7855L9.9932 1.70211ZM9.9932 0.211914H9.88052C9.76034 0.227437 9.65518 0.254602 9.56504 0.293409C9.4749 0.332217 9.37349 0.390427 9.26082 0.468042C9.14815 0.545656 9.04674 0.638794 8.9566 0.747454C8.94158 0.762977 8.93031 0.7785 8.9228 0.794023C8.91529 0.809546 8.90402 0.825069 8.889 0.840592L0.799053 11.8774C0.453521 12.3741 0.415964 12.8941 0.68638 13.4374C0.731449 13.5306 0.787786 13.6198 0.85539 13.7052C0.922994 13.7906 0.998109 13.8682 1.08074 13.938C1.16336 14.0079 1.2535 14.0661 1.35115 14.1127C1.4488 14.1592 1.55021 14.1942 1.65537 14.2175C1.76053 14.2407 1.86569 14.2524 1.97086 14.2524L6.13977 14.2757L4.81022 22.2622C4.75013 22.6037 4.80271 22.9258 4.96797 23.2285C5.13322 23.5312 5.36608 23.7524 5.66654 23.8921C5.75668 23.9387 5.85057 23.9697 5.94822 23.9852C6.04587 24.0008 6.14728 24.0085 6.25244 24.0085C6.68811 24.0085 7.05618 23.8067 7.35664 23.4031L15.4466 11.435C15.7921 10.9382 15.8297 10.4182 15.5593 9.87492C15.2888 9.33162 14.8607 9.05997 14.2748 9.05997H10.1059L11.4129 2.05138C11.4279 1.98929 11.4392 1.93108 11.4467 1.87675C11.4542 1.82242 11.458 1.7642 11.458 1.70211C11.458 1.56241 11.4392 1.43046 11.4016 1.30628C11.3641 1.1821 11.3152 1.06567 11.2551 0.957013C11.195 0.848353 11.1237 0.747454 11.0411 0.654317C10.9584 0.561179 10.8645 0.483565 10.7594 0.421473C10.6542 0.359382 10.5415 0.308932 10.4214 0.270125C10.3012 0.231318 10.181 0.211914 10.0608 0.211914H9.9932Z" fill="white"/>
</svg>
