<svg width="20" height="21" viewBox="0 0 20 21" fill="none" xmlns="http://www.w3.org/2000/svg">
<path d="M12.1477 3.52329C11.9263 3.16642 11.6119 2.87084 11.2353 2.66556C10.8587 2.46028 10.433 2.35234 9.99972 2.35234C9.56649 2.35234 9.14069 2.46028 8.76412 2.66556C8.38755 2.87084 8.07313 3.16642 7.85172 3.52329C7.40618 3.29206 6.93168 3.11622 6.43972 3.00004C6.77539 2.37213 7.28537 1.84518 7.9135 1.47722C8.54163 1.10925 9.26354 0.914551 9.99972 0.914551C10.7359 0.914551 11.4578 1.10925 12.0859 1.47722C12.7141 1.84518 13.224 2.37213 13.5597 3.00004C13.0678 3.11621 12.5933 3.29205 12.1477 3.52329Z" fill="white"/>
<path d="M7.38372 6.12708C7.9212 5.94921 8.47705 5.82713 9.04172 5.76291C8.61628 5.20388 8.06956 4.73977 7.43914 4.4025C6.80872 4.06524 6.10957 3.86282 5.38974 3.80915C4.66992 3.75549 3.94651 3.85186 3.26925 4.09164C2.59199 4.33141 1.97695 4.70891 1.46642 5.19817C0.95589 5.68742 0.561982 6.27684 0.31178 6.92588C0.0615779 7.57492 -0.0389822 8.26819 0.0170144 8.95802C0.0730109 9.64785 0.284235 10.3179 0.636164 10.922C0.988093 11.5262 1.47238 12.0501 2.05572 12.4578C2.12299 11.9163 2.25073 11.3833 2.43672 10.868C1.81636 10.2324 1.47802 9.39076 1.49315 8.52065C1.50828 7.65054 1.87569 6.82012 2.51779 6.20477C3.15989 5.58943 4.02642 5.23732 4.93436 5.22283C5.8423 5.20833 6.72058 5.53257 7.38372 6.12708Z" fill="white"/>
<path d="M17.9427 12.4569C18.5261 12.0492 19.0103 11.5252 19.3623 10.9211C19.7142 10.3169 19.9254 9.64689 19.9814 8.95706C20.0374 8.26723 19.9369 7.57396 19.6866 6.92492C19.4364 6.27588 19.0425 5.68647 18.532 5.19721C18.0215 4.70795 17.4064 4.33045 16.7292 4.09068C16.0519 3.8509 15.3285 3.75453 14.6087 3.80819C13.8889 3.86186 13.1897 4.06428 12.5593 4.40155C11.9289 4.73881 11.3821 5.20292 10.9567 5.76195C11.5218 5.82643 12.0779 5.94884 12.6157 6.12708C13.2788 5.53257 14.1571 5.20833 15.0651 5.22283C15.973 5.23732 16.8395 5.58943 17.4816 6.20477C18.1237 6.82012 18.4911 7.65054 18.5063 8.52065C18.5214 9.39076 18.1831 10.2324 17.5627 10.868C17.7457 11.3759 17.8747 11.9077 17.9427 12.4569Z" fill="white"/>
<path d="M7.49973 11.6979C7.49973 11.5072 7.57875 11.3244 7.7194 11.1896C7.86005 11.0548 8.05081 10.9791 8.24973 10.9791H12.4997C12.6521 10.9792 12.8008 11.0238 12.9261 11.1069C13.0514 11.19 13.1473 11.3077 13.201 11.4443C13.2547 11.5809 13.2638 11.73 13.227 11.8717C13.1901 12.0134 13.1091 12.1409 12.9947 12.2374L12.9817 12.2489L12.9287 12.2968C12.5952 12.6095 12.286 12.9452 12.0037 13.3012C11.4467 14.0017 10.8157 14.9974 10.4737 16.1992C10.4479 16.2903 10.4035 16.3756 10.3432 16.4503C10.2829 16.525 10.2079 16.5876 10.1224 16.6345C10.0368 16.6814 9.94253 16.7117 9.84479 16.7236C9.74705 16.7356 9.6478 16.729 9.55273 16.7042C9.45765 16.6794 9.3686 16.6369 9.29066 16.5791C9.21272 16.5214 9.14742 16.4494 9.09848 16.3675C9.04955 16.2855 9.01793 16.1951 9.00545 16.1015C8.99297 16.0078 8.99986 15.9127 9.02573 15.8216C9.43373 14.3879 10.1777 13.2274 10.8087 12.431L10.8197 12.4166H8.24973C8.05081 12.4166 7.86005 12.3409 7.7194 12.2061C7.57875 12.0713 7.49973 11.8885 7.49973 11.6979Z" fill="white"/>
<path d="M9.99973 20.0833C11.8562 20.0833 13.6367 19.3765 14.9495 18.1185C16.2622 16.8604 16.9997 15.1541 16.9997 13.375C16.9997 11.5958 16.2622 9.8895 14.9495 8.63144C13.6367 7.37339 11.8562 6.66662 9.99973 6.66662C8.14321 6.66662 6.36273 7.37339 5.04998 8.63144C3.73723 9.8895 2.99973 11.5958 2.99973 13.375C2.99973 15.1541 3.73723 16.8604 5.04998 18.1185C6.36273 19.3765 8.14321 20.0833 9.99973 20.0833ZM9.99973 18.6458C8.54104 18.6458 7.14209 18.0905 6.11064 17.102C5.07919 16.1135 4.49973 14.7729 4.49973 13.375C4.49973 11.977 5.07919 10.6364 6.11064 9.64791C7.14209 8.65944 8.54104 8.10412 9.99973 8.10412C11.4584 8.10412 12.8574 8.65944 13.8888 9.64791C14.9203 10.6364 15.4997 11.977 15.4997 13.375C15.4997 14.7729 14.9203 16.1135 13.8888 17.102C12.8574 18.0905 11.4584 18.6458 9.99973 18.6458Z" fill="white"/>
</svg>
