<svg width="21" height="21" viewBox="0 0 21 21" fill="none" xmlns="http://www.w3.org/2000/svg">
<path d="M10.5 21C13.2848 21 15.9555 19.8938 17.9246 17.9246C19.8938 15.9555 21 13.2848 21 10.5C21 7.71523 19.8938 5.04451 17.9246 3.07538C15.9555 1.10625 13.2848 0 10.5 0C7.71523 0 5.04451 1.10625 3.07538 3.07538C1.10625 5.04451 0 7.71523 0 10.5C0 13.2848 1.10625 15.9555 3.07538 17.9246C5.04451 19.8938 7.71523 21 10.5 21V21ZM10.5 1.3125C11.3623 1.3125 12.3467 2.08688 13.1539 3.81675C13.4387 4.42837 13.6868 5.13188 13.8876 5.90625H7.11244C7.31325 5.13188 7.56131 4.42837 7.84744 3.81675C8.652 2.08688 9.63638 1.3125 10.5 1.3125ZM6.657 3.26156C6.26943 4.11051 5.96908 4.99661 5.76056 5.90625H2.541C3.64907 3.99114 5.40911 2.53857 7.49963 1.81387C7.18331 2.247 6.90113 2.73788 6.657 3.26156ZM5.502 7.21875C5.33214 8.30421 5.24788 9.40134 5.25 10.5C5.25 11.6419 5.33794 12.747 5.50331 13.7812H1.91625C1.51597 12.7336 1.31133 11.6215 1.3125 10.5C1.3125 9.345 1.52644 8.23725 1.91625 7.21875H5.50331H5.502ZM5.76056 15.0938C5.99156 16.0689 6.29475 16.9601 6.657 17.7384C6.90113 18.2621 7.18331 18.753 7.49963 19.1861C5.40911 18.4614 3.64907 17.0089 2.541 15.0938H5.76187H5.76056ZM7.11244 15.0938H13.8876C13.7068 15.8112 13.4607 16.5106 13.1526 17.1833C12.348 18.9131 11.3636 19.6875 10.5 19.6875C9.63769 19.6875 8.65331 18.9131 7.84613 17.1833C7.53889 16.5105 7.29375 15.8111 7.11375 15.0938H7.11244ZM14.1671 13.7812H6.83287C6.65049 12.6971 6.56005 11.5994 6.5625 10.5C6.5625 9.34106 6.65831 8.23594 6.83287 7.21875H14.1671C14.3417 8.23594 14.4375 9.34106 14.4375 10.5C14.4375 11.6589 14.3417 12.7641 14.1671 13.7812ZM15.2394 15.0938H18.459C17.3509 17.0089 15.5909 18.4614 13.5004 19.1861C13.8167 18.753 14.0989 18.2621 14.343 17.7384C14.7053 16.9601 15.0084 16.0689 15.2394 15.0938V15.0938ZM19.0851 13.7812H15.4967C15.6621 12.747 15.75 11.6419 15.75 10.5C15.75 9.35812 15.6621 8.253 15.4967 7.21875H19.0838C19.4736 8.23725 19.6875 9.345 19.6875 10.5C19.6875 11.655 19.4736 12.7627 19.0838 13.7812H19.0851ZM13.5004 1.81387C15.591 2.53847 17.351 3.99107 18.459 5.90625H15.2381C15.0296 4.99662 14.7292 4.11051 14.3417 3.26156C14.108 2.75305 13.8258 2.26824 13.4991 1.81387H13.5004Z" fill="#FFA114"/>
</svg>
