<svg width="23" height="22" viewBox="0 0 23 22" fill="none" xmlns="http://www.w3.org/2000/svg">
	<path d="M3.45 0C2.535 0 1.65748 0.365977 1.01048 1.01742C0.363481 1.66886 0 2.55241 0 3.47368V18.5263C0 19.4476 0.363481 20.3311 1.01048 20.9826C1.65748 21.634 2.535 22 3.45 22H18.4C19.315 22 20.1925 21.634 20.8395 20.9826C21.4865 20.3311 21.85 19.4476 21.85 18.5263V16.4768C22.2109 16.1518 22.4998 15.7539 22.698 15.309C22.8961 14.8642 22.999 14.3823 23 13.8947V8.10526C22.999 7.61771 22.8961 7.13583 22.698 6.69096C22.4998 6.24609 22.2109 5.84819 21.85 5.52316V3.47368C21.85 2.55241 21.4865 1.66886 20.8395 1.01742C20.1925 0.365977 19.315 0 18.4 0H3.45ZM3.45 1.15789H18.4C19.01 1.15789 19.595 1.40188 20.0263 1.83617C20.4577 2.27047 20.7 2.8595 20.7 3.47368V4.83305C20.3308 4.70061 19.9419 4.63248 19.55 4.63158H12.65C11.735 4.63158 10.8575 4.99756 10.2105 5.649C9.56348 6.30044 9.2 7.18398 9.2 8.10526V13.8947C9.2 14.816 9.56348 15.6996 10.2105 16.351C10.8575 17.0024 11.735 17.3684 12.65 17.3684H19.55C19.9419 17.3675 20.3308 17.2994 20.7 17.1669V18.5263C20.7 19.1405 20.4577 19.7295 20.0263 20.1638C19.595 20.5981 19.01 20.8421 18.4 20.8421H3.45C2.84 20.8421 2.25499 20.5981 1.82365 20.1638C1.39232 19.7295 1.15 19.1405 1.15 18.5263V3.47368C1.15 2.8595 1.39232 2.27047 1.82365 1.83617C2.25499 1.40188 2.84 1.15789 3.45 1.15789ZM12.65 5.78947H19.55C20.16 5.78947 20.745 6.03346 21.1763 6.46775C21.6077 6.90205 21.85 7.49108 21.85 8.10526V13.8947C21.85 14.5089 21.6077 15.098 21.1763 15.5322C20.745 15.9665 20.16 16.2105 19.55 16.2105H12.65C12.04 16.2105 11.455 15.9665 11.0237 15.5322C10.5923 15.098 10.35 14.5089 10.35 13.8947V8.10526C10.35 7.49108 10.5923 6.90205 11.0237 6.46775C11.455 6.03346 12.04 5.78947 12.65 5.78947ZM15.525 8.10526C14.7625 8.10526 14.0312 8.41024 13.4921 8.95311C12.9529 9.49598 12.65 10.2323 12.65 11C12.65 11.7677 12.9529 12.504 13.4921 13.0469C14.0312 13.5898 14.7625 13.8947 15.525 13.8947C16.2875 13.8947 17.0188 13.5898 17.5579 13.0469C18.0971 12.504 18.4 11.7677 18.4 11C18.4 10.2323 18.0971 9.49598 17.5579 8.95311C17.0188 8.41024 16.2875 8.10526 15.525 8.10526ZM15.525 9.26316C15.7515 9.26316 15.9758 9.30808 16.1851 9.39537C16.3944 9.48265 16.5846 9.61059 16.7448 9.77187C16.9049 9.93315 17.032 10.1246 17.1187 10.3353C17.2054 10.5461 17.25 10.7719 17.25 11C17.25 11.2281 17.2054 11.4539 17.1187 11.6647C17.032 11.8754 16.9049 12.0669 16.7448 12.2281C16.5846 12.3894 16.3944 12.5173 16.1851 12.6046C15.9758 12.6919 15.7515 12.7368 15.525 12.7368C15.0675 12.7368 14.6287 12.5539 14.3052 12.2281C13.9817 11.9024 13.8 11.4606 13.8 11C13.8 10.5394 13.9817 10.0976 14.3052 9.77187C14.6287 9.44615 15.0675 9.26316 15.525 9.26316Z" fill="#00A3FF" />
</svg>
