<svg width="21" height="19" viewBox="0 0 21 19" fill="none" xmlns="http://www.w3.org/2000/svg">
<path opacity="0.1" d="M8 0H13V5H11V9H16C16.7956 9 17.5587 9.31607 18.1213 9.87868C18.6839 10.4413 19 11.2044 19 12V14H21V19H16V14H18V12C18 11.4696 17.7893 10.9609 17.4142 10.5858C17.0391 10.2107 16.5304 10 16 10H11V14H13V19H8V14H10V10H5C4.46957 10 3.96086 10.2107 3.58579 10.5858C3.21071 10.9609 3 11.4696 3 12V14H5V19H0V14H2V12C2 11.2044 2.31607 10.4413 2.87868 9.87868C3.44129 9.31607 4.20435 9 5 9H10V5H8V0ZM12 4V1H9V4H12ZM4 18V15H1V18H4ZM12 18V15H9V18H12ZM20 18V15H17V18H20Z" fill="white"/>
</svg>
