<svg width="59" height="59" viewBox="0 0 59 59" fill="none" xmlns="http://www.w3.org/2000/svg">
<rect x="0.5" y="0.5" width="58" height="58" rx="14.5" stroke="white" stroke-opacity="0.2"/>
<circle cx="30" cy="30" r="15.5" stroke="#00A3FF"/>
<path d="M31.32 39.88L34.98 35.36V34H25.74V35.74H32.48L28.96 40.06V41.46H30.08C32.48 41.46 33.54 42.42 33.54 43.9C33.54 45.42 32.34 46.38 30.24 46.38C28.52 46.38 26.96 45.76 26.02 44.88L25.1 46.46C26.28 47.52 28.24 48.16 30.24 48.16C33.8 48.16 35.54 46.24 35.54 43.88C35.54 41.72 34.12 40.14 31.32 39.88Z" fill="#00A3FF"/>
</svg>
