<svg width="20" height="16" viewBox="0 0 20 16" fill="none" xmlns="http://www.w3.org/2000/svg">
<path opacity="0.1" d="M19 7.00005H15.06C14.9903 6.99058 14.9197 6.99058 14.85 7.00005H14.68C14.6277 7.02987 14.5776 7.06328 14.53 7.10005C14.4743 7.13681 14.4209 7.17689 14.37 7.22005C14.3366 7.26094 14.3065 7.30441 14.28 7.35005C14.2342 7.41304 14.194 7.47997 14.16 7.55005L12.56 11.96L8.39 0.660046C8.31993 0.466995 8.19212 0.3002 8.02394 0.182327C7.85577 0.0644539 7.65537 0.0012207 7.45 0.0012207C7.24463 0.0012207 7.04423 0.0644539 6.87605 0.182327C6.70788 0.3002 6.58007 0.466995 6.51 0.660046L4.2 7.00005H1C0.734784 7.00005 0.48043 7.1054 0.292893 7.29294C0.105357 7.48048 0 7.73483 0 8.00005C0 8.26526 0.105357 8.51962 0.292893 8.70715C0.48043 8.89469 0.734784 9.00005 1 9.00005H5.3C5.35684 8.97268 5.4105 8.93915 5.46 8.90005C5.51568 8.86328 5.56911 8.82321 5.62 8.78005L5.71 8.65005C5.75766 8.58829 5.79794 8.52117 5.83 8.45005L7.45 3.92005L11.61 15.34C11.6799 15.5333 11.8076 15.7004 11.9758 15.8185C12.144 15.9366 12.3445 16 12.55 16C12.7555 16 12.956 15.9366 13.1242 15.8185C13.2924 15.7004 13.4201 15.5333 13.49 15.34L15.79 9.00005H19C19.2652 9.00005 19.5196 8.89469 19.7071 8.70715C19.8946 8.51962 20 8.26526 20 8.00005C20 7.73483 19.8946 7.48048 19.7071 7.29294C19.5196 7.1054 19.2652 7.00005 19 7.00005Z" fill="white"/>
</svg>
