<svg width="56" height="55" viewBox="0 0 56 55" fill="none" xmlns="http://www.w3.org/2000/svg">
	<mask id="path-1-inside-1" fill="white">
		<path d="M18.1556 24.4766C18.6915 25.4142 19.4279 26.2023 20.3041 26.7762L22.5923 27.9476L21.6677 30.0445C17.4646 28.4818 15.0029 24.7921 15.0029 21.3117C15.0709 19.5132 15.4726 17.8189 16.1897 16.1905C16.7944 14.8396 17.024 13.3749 17.1006 11.8794L17.2216 7.12766L18.3976 7.1039C19.5115 7.12915 20.5267 7.53996 21.43 8.2374C22.3333 8.93484 23.0169 9.90967 23.3899 11.0324C25.0661 6.56457 22.0392 2.11929 21.887 1.89952L20.554 0H22.7756C25.4648 0 31.061 3.0038 31.061 9.58144H28.8395C28.935 8.38935 28.1428 5.9317 27.5281 4.93206C26.9133 3.93241 25.9451 3.15814 24.8837 2.77979C26.28 6.03594 27.0009 10.922 23.5441 15.0251L21.7951 17.2965V14.2078C21.7951 11.2676 20.4141 10.1949 19.4432 9.76727V11.8794C19.3752 13.6779 18.9707 15.4436 18.2536 17.0719C17.6489 18.4228 17.2983 19.8875 17.2216 21.383C17.2997 22.4787 17.6198 23.5389 18.1556 24.4766Z" />
	</mask>
	<path d="M20.3041 26.7762L18.6604 29.2859L18.7945 29.3737L18.9371 29.4467L20.3041 26.7762ZM17.2216 21.383L14.2256 21.2295L14.2162 21.4128L14.2292 21.596L17.2216 21.383ZM18.2536 17.0719L20.9918 18.2976L20.9955 18.2894L20.9991 18.2811L18.2536 17.0719ZM19.4432 11.8794L22.4411 11.9928L22.4432 11.9361V11.8794H19.4432ZM19.4432 9.76727L20.6526 7.02184L16.4432 5.16757V9.76727H19.4432ZM21.7951 17.2965H18.7951V26.1094L24.172 19.1268L21.7951 17.2965ZM23.5441 15.0251L21.2498 13.0922L21.2074 13.1426L21.1672 13.1948L23.5441 15.0251ZM24.8837 2.77979L25.8911 -0.0460264L19.4184 -2.35346L22.1266 3.9621L24.8837 2.77979ZM27.5281 4.93206L24.9726 6.50358V6.50359L27.5281 4.93206ZM28.8395 9.58144L25.8491 9.34171L25.5893 12.5814H28.8395V9.58144ZM31.061 9.58144V12.5814H34.061V9.58144H31.061ZM20.554 0V-3H14.7839L18.0983 1.72324L20.554 0ZM21.887 1.89952L24.3534 0.191659L24.3481 0.183954L24.3427 0.176283L21.887 1.89952ZM23.3899 11.0324L20.5429 11.9783L23.2182 20.0309L26.1987 12.0862L23.3899 11.0324ZM21.43 8.2374L23.2634 5.8628L21.43 8.2374ZM18.3976 7.1039L18.4656 4.10467L18.4013 4.10321L18.337 4.10451L18.3976 7.1039ZM17.2216 7.12766L17.161 4.12827L14.2956 4.18617L14.2226 7.05128L17.2216 7.12766ZM17.1006 11.8794L20.0967 12.0329L20.0987 11.9944L20.0997 11.9558L17.1006 11.8794ZM16.1897 16.1905L13.4515 14.9648L13.4478 14.9731L13.4442 14.9813L16.1897 16.1905ZM15.0029 21.3117L12.0051 21.1984L12.0029 21.255V21.3117H15.0029ZM22.5923 27.9476L25.3373 29.1579L26.4797 26.5672L23.9593 25.2771L22.5923 27.9476ZM21.6677 30.0445L20.6222 32.8565L23.2721 33.8417L24.4127 31.2549L21.6677 30.0445ZM21.9478 24.2666C21.4805 23.9606 21.0685 23.5273 20.7602 22.9879L15.551 25.9652C16.3145 27.301 17.3752 28.4441 18.6604 29.2859L21.9478 24.2666ZM20.7602 22.9879C20.4516 22.4479 20.2607 21.8247 20.2141 21.1699L14.2292 21.596C14.3386 23.1327 14.7879 24.63 15.551 25.9652L20.7602 22.9879ZM20.2177 21.5365C20.2756 20.4069 20.5404 19.3061 20.9918 18.2976L15.5154 15.8462C14.7574 17.5395 14.3209 19.3682 14.2256 21.2295L20.2177 21.5365ZM20.9991 18.2811C21.8705 16.3025 22.359 14.1647 22.4411 11.9928L16.4454 11.7661C16.3915 13.1911 16.071 14.5846 15.508 15.8628L20.9991 18.2811ZM22.4432 11.8794V9.76727H16.4432V11.8794H22.4432ZM18.2339 12.5127C18.3433 12.5609 18.4252 12.6182 18.4991 12.7273C18.5697 12.8317 18.7951 13.221 18.7951 14.2078H24.7951C24.7951 12.2544 24.3299 10.6373 23.4674 9.36338C22.6081 8.09423 21.514 7.40129 20.6526 7.02184L18.2339 12.5127ZM18.7951 14.2078V17.2965H24.7951V14.2078H18.7951ZM24.172 19.1268L25.9211 16.8555L21.1672 13.1948L19.4182 15.4661L24.172 19.1268ZM25.8385 16.958C30.3322 11.624 29.2597 5.37244 27.6409 1.59747L22.1266 3.9621C23.3004 6.69944 23.6696 10.2199 21.2498 13.0922L25.8385 16.958ZM23.8764 5.6056C24.2942 5.75454 24.7161 6.08644 24.9726 6.50358L30.0835 3.36053C29.1105 1.77838 27.596 0.561754 25.8911 -0.0460264L23.8764 5.6056ZM24.9726 6.50359C25.0829 6.68292 25.345 7.26397 25.5735 8.03602C25.679 8.39236 25.7576 8.72433 25.8039 8.9962C25.8556 9.29983 25.8445 9.39909 25.8491 9.34171L31.8299 9.82118C31.9245 8.64074 31.6066 7.27868 31.3268 6.33314C31.0294 5.32843 30.588 4.18084 30.0835 3.36053L24.9726 6.50359ZM28.8395 12.5814H31.061V6.58144H28.8395V12.5814ZM34.061 9.58144C34.061 5.35254 32.2315 2.17744 29.9418 0.101545C27.7685 -1.86883 25.0056 -3 22.7756 -3V3C23.2349 3 24.6147 3.37073 25.9118 4.54667C27.0925 5.61709 28.061 7.23271 28.061 9.58144H34.061ZM22.7756 -3H20.554V3H22.7756V-3ZM18.0983 1.72324L19.4313 3.62276L24.3427 0.176283L23.0097 -1.72324L18.0983 1.72324ZM19.4206 3.60738C19.413 3.5964 20.0369 4.49942 20.4783 5.82233C20.9246 7.16012 21.0878 8.6278 20.5811 9.97865L26.1987 12.0862C27.3681 8.96921 26.856 5.98032 26.1699 3.92355C25.4788 1.85192 24.5132 0.422411 24.3534 0.191659L19.4206 3.60738ZM26.2369 10.0866C25.683 8.41936 24.6572 6.93897 23.2634 5.8628L19.5966 10.612C20.0094 10.9307 20.3508 11.4 20.5429 11.9783L26.2369 10.0866ZM23.2634 5.8628C21.9377 4.83926 20.3184 4.14667 18.4656 4.10467L18.3296 10.1031C18.7045 10.1116 19.1157 10.2407 19.5966 10.612L23.2634 5.8628ZM18.337 4.10451L17.161 4.12827L17.2822 10.127L18.4582 10.1033L18.337 4.10451ZM14.2226 7.05128L14.1016 11.8031L20.0997 11.9558L20.2207 7.20404L14.2226 7.05128ZM14.1046 11.7259C14.0374 13.0363 13.844 14.0881 13.4515 14.9648L18.9279 17.4162C19.7448 15.5911 20.0106 13.7134 20.0967 12.0329L14.1046 11.7259ZM13.4442 14.9813C12.579 16.9459 12.0878 19.0112 12.0051 21.1984L18.0008 21.425C18.0541 20.0152 18.3662 18.6919 18.9353 17.3996L13.4442 14.9813ZM23.9593 25.2771L21.6711 24.1058L18.9371 29.4467L21.2254 30.618L23.9593 25.2771ZM12.0029 21.3117C12.0029 26.1709 15.3659 30.9021 20.6222 32.8565L22.7132 27.2326C19.5632 26.0614 18.0029 23.4132 18.0029 21.3117H12.0029ZM19.8473 26.7372L18.9227 28.8342L24.4127 31.2549L25.3373 29.1579L19.8473 26.7372Z" fill="url(#paint0_linear)" mask="url(#path-1-inside-1)" />
	<path d="M21.1774 8.64833C21.1774 8.64833 22.2275 9.08074 21.4862 8.33946C21.2003 8.05352 19.7919 7.104 19.0153 7.10401L17.1621 7.104V11.737C17.7798 12.0458 18.7064 12.0458 18.3976 10.1927C18.0626 8.18281 19.3242 8.33946 21.1774 8.64833Z" fill="url(#paint1_linear)" />
	<path d="M25.1925 1.54432C25.1925 1.54432 26.5516 1.66787 25.8103 0.926596C25.5243 0.640656 23.8071 -1.03489e-05 23.0305 0H20.5596L22.1039 2.16206L23.0305 4.01525C23.6482 4.63298 23.6482 4.63297 23.3394 2.77978C23.0044 0.769933 23.3394 1.23546 25.1925 1.54432Z" fill="url(#paint2_linear)" />
	<path d="M24.8836 9.94871C24.3894 11.5873 22.6186 13.5576 21.7949 14.0452V16.6787H22.1038L23.957 15.2157L24.8836 13.7526L25.8102 11.7044L26.119 9.94871V8.48566L25.8102 5.55957C25.7072 6.24232 25.3778 8.3101 24.8836 9.94871Z" fill="url(#paint3_linear)" />
	<path d="M16.2355 23.7826C16.2355 26.5006 19.9418 28.4156 21.795 29.0333H22.1039L21.795 29.9599C21.6921 30.0629 21.5479 30.1452 20.5596 29.651C19.7755 29.259 18.7064 28.4156 17.7798 27.489C17.3147 27.054 17.0789 26.7881 16.8532 26.5624C16.2355 25.9447 15 23.5118 15 22.2383C15 21.3117 15.103 20.0762 15.3089 19.4585C15.6177 19.7674 16.2355 21.0646 16.2355 23.7826Z" fill="url(#paint4_linear)" />
	<path d="M31.061 27.9833C32.2167 27.1365 34.0236 25.0799 34.5279 23.6283C35.1582 21.8137 35.7886 19.6362 34.8431 16.7329L32.9142 10.8104C32.7041 9.84258 32.5738 7.51477 33.5824 5.48244C34.1701 4.29812 34.715 3.38493 35.1298 2.75723C35.483 2.22265 36.1881 2.11753 36.7226 2.471C37.1004 3.1755 36.9411 4.04714 36.5221 4.72795C35.8934 5.74953 35.3166 7.30068 35.357 9.2729L36.2869 8.61427C37.1069 8.03358 38.0868 7.72171 39.0915 7.72171C38.0654 8.5426 37.1377 9.47942 36.3269 10.5135L35.694 11.3207C35.7597 11.6735 35.6806 11.6421 35.7886 12.0149C36.1689 13.3288 36.4758 14.3044 36.7226 15.0796C37.242 14.1415 38.171 13.501 39.2326 13.3494L39.7093 13.2813L39.1864 13.7887C38.3056 14.6433 37.5728 15.6382 37.0177 16.7329C37.2617 17.7063 37.6796 18.9999 37.6796 20.7249C38.1806 19.926 39.0229 19.4037 39.9612 19.3098L40.327 19.2733C39.3016 20.2166 38.401 21.287 37.6468 22.4585L37.2053 23.1444C36.0988 26.2787 33.384 29.5111 32.6369 29.7978L31.061 30.8866V27.9833Z" fill="url(#paint5_linear)" />
	<path d="M33.223 29.3422L31.061 30.8865C30.7521 29.651 31.9258 26.5624 34.1496 24.0915C35.105 23.03 35.3851 21.3117 35.3851 19.1496C35.2739 17.9691 34.8145 16.6739 34.4585 15.4432L33.223 11.428C33.4289 11.5309 34.0878 12.5399 35.0762 14.5166C36.3117 16.9876 36.3117 18.223 36.6205 20.6939C36.8676 22.6707 36.1058 25.224 35.6939 26.2535L34.4585 27.7978L33.8408 28.57L33.223 29.3422Z" fill="url(#paint6_linear)" />
	<path d="M27.8764 6.05029L25.0054 11.0793L22.5175 15.1937C21.8405 16.3132 21.3313 17.526 21.0062 18.7933L20.7574 19.7629C20.4004 21.1546 20.375 22.6107 20.6834 24.014L20.8441 24.745C21.2619 26.6465 22.4156 28.3051 24.0528 29.3584L24.1593 29.4269C26.6789 31.0479 29.9401 30.9347 32.3413 29.1429C33.5845 28.2152 34.494 26.91 34.9338 25.4225L35.0723 24.9538C35.583 23.2264 35.5418 21.3827 34.9545 19.6799L34.2564 17.6558L30.6411 11.0793L27.8764 6.05029Z" fill="url(#paint7_linear)" />
	<g filter="url(#filter0_d)">
		<path d="M32.3886 18.1006C29.9673 16.878 29.9673 24.5192 26.9407 26.0475C24.5194 27.2701 22.098 22.2778 20.8874 19.6289L20.5847 20.5458L20.2821 21.7684C20.1613 22.6222 20.2038 23.5164 20.3959 24.3916C20.7319 25.9227 21.5256 27.3957 22.7034 28.4927C24.2264 29.9112 25.8288 30.6322 28.1513 30.6322C30.6709 30.6322 33.1992 28.7236 34.2046 26.6588C34.8417 25.3503 34.956 23.979 35.1126 22.991C35.0117 23.1948 34.3256 19.0787 32.3886 18.1006Z" fill="url(#paint8_linear)" />
	</g>
	<path d="M31.2011 15.7712C31.9298 17.6229 32.6341 19.7328 32.7655 21.6655C32.8967 23.5939 32.4566 25.2991 30.9513 26.4177C30.1113 27.042 29.1099 27.4026 28.036 27.4026C26.8007 27.4026 25.6606 26.9253 24.7521 26.1177C23.4603 24.9693 23.086 23.3672 23.2106 21.5955C23.3354 19.8197 23.9601 17.9109 24.623 16.2054C25.0549 15.0945 25.5251 14.097 26.0891 13.3799C26.6502 12.6665 27.28 12.2595 28.036 12.2595C28.7595 12.2595 29.3419 12.6105 29.8536 13.2327C30.3708 13.8616 30.7986 14.7484 31.2011 15.7712Z" stroke="white" stroke-width="0.5" />
	<path d="M29.8029 16.7389C30.6682 18.4338 31.3516 20.614 31.3729 22.5067C31.3835 23.4518 31.2289 24.3086 30.8651 24.9957C30.5047 25.6763 29.9336 26.2018 29.0816 26.487C28.7491 26.5983 28.3985 26.6578 28.036 26.6578C27.5186 26.6578 27.0249 26.5366 26.5732 26.3159C25.1044 25.5981 24.5808 24.1494 24.6252 22.4223C24.6696 20.6931 25.2872 18.745 26.0309 17.156C26.3044 16.5715 26.6012 16.0862 26.9366 15.7496C27.2676 15.4173 27.6258 15.2393 28.036 15.2393C28.767 15.2393 29.3137 15.7808 29.8029 16.7389Z" stroke="white" stroke-opacity="0.5" stroke-width="0.5" />
	<defs>
		<filter id="filter0_d" x="0.214355" y="1.96875" width="54.8982" height="52.6635" filterUnits="userSpaceOnUse" color-interpolation-filters="sRGB">
			<feFlood flood-opacity="0" result="BackgroundImageFix" />
			<feColorMatrix in="SourceAlpha" type="matrix" values="0 0 0 0 0 0 0 0 0 0 0 0 0 0 0 0 0 0 127 0" result="hardAlpha" />
			<feOffset dy="4" />
			<feGaussianBlur stdDeviation="10" />
			<feColorMatrix type="matrix" values="0 0 0 0 0 0 0 0 0 0 0 0 0 0 0 0 0 0 0.25 0" />
			<feBlend mode="normal" in2="BackgroundImageFix" result="effect1_dropShadow" />
			<feBlend mode="normal" in="SourceGraphic" in2="effect1_dropShadow" result="shape" />
		</filter>
		<linearGradient id="paint0_linear" x1="26.108" y1="0" x2="26.108" y2="30.8865" gradientUnits="userSpaceOnUse">
			<stop stop-color="#FFA114" />
			<stop offset="1" stop-color="#D00000" />
		</linearGradient>
		<linearGradient id="paint1_linear" x1="17.1621" y1="7.104" x2="19.4566" y2="11.8901" gradientUnits="userSpaceOnUse">
			<stop stop-color="#B34E00" />
			<stop offset="0.0001" stop-color="#D35C00" />
			<stop offset="1" stop-color="#B34E00" stop-opacity="0" />
		</linearGradient>
		<linearGradient id="paint2_linear" x1="21.1773" y1="-5.35633e-08" x2="23.4718" y2="4.7861" gradientUnits="userSpaceOnUse">
			<stop stop-color="#E96500" />
			<stop offset="1" stop-color="#B34E00" stop-opacity="0" />
		</linearGradient>
		<linearGradient id="paint3_linear" x1="25.1924" y1="7.90044" x2="22.9613" y2="17.3207" gradientUnits="userSpaceOnUse">
			<stop stop-color="#BC5200" />
			<stop offset="1" stop-color="#BC5200" stop-opacity="0" />
		</linearGradient>
		<linearGradient id="paint4_linear" x1="15.6177" y1="16.6787" x2="18.7064" y2="28.7245" gradientUnits="userSpaceOnUse">
			<stop stop-color="#FF0000" />
			<stop offset="1" stop-opacity="0" />
		</linearGradient>
		<linearGradient id="paint5_linear" x1="34.3703" y1="1.85327" x2="34.3703" y2="30.8866" gradientUnits="userSpaceOnUse">
			<stop stop-color="#35FF14" />
			<stop offset="1" stop-color="#347700" />
		</linearGradient>
		<linearGradient id="paint6_linear" x1="33.8405" y1="11.428" x2="33.8405" y2="30.8865" gradientUnits="userSpaceOnUse">
			<stop stop-color="#145600" />
			<stop offset="1" stop-color="#186400" stop-opacity="0" />
		</linearGradient>
		<linearGradient id="paint7_linear" x1="27.8764" y1="9.14509" x2="27.8764" y2="35.4509" gradientUnits="userSpaceOnUse">
			<stop stop-color="#14C7FF" />
			<stop offset="1" stop-color="#1472FF" />
		</linearGradient>
		<linearGradient id="paint8_linear" x1="27.6635" y1="19.6289" x2="27.6635" y2="30.6322" gradientUnits="userSpaceOnUse">
			<stop stop-color="#0088B3" />
			<stop offset="1" stop-color="#0038FF" />
		</linearGradient>
	</defs>
</svg>
