<svg width="61" height="74" viewBox="0 0 61 74" fill="none" xmlns="http://www.w3.org/2000/svg">
<rect x="0.5" y="0.5" width="58" height="58" rx="14.5" stroke="white" stroke-opacity="0.2"/>
<circle cx="30" cy="30" r="15.5" stroke="#FFA114"/>
<g filter="url(#filter0_f)">
<path d="M31.6145 33.9988H31.6302H31.6145ZM31.6145 33.9988L30.483 39.9134L34.6003 39.929L29.0058 47.9504L30.1373 41.4428L26.0199 41.4272L31.6145 33.9988ZM31.6145 33H31.5359C31.4521 33.0104 31.3788 33.0286 31.3159 33.0546C31.253 33.0806 31.1823 33.1196 31.1038 33.1717C31.0252 33.2237 30.9545 33.2861 30.8916 33.3589C30.8811 33.3693 30.8733 33.3797 30.868 33.3901C30.8628 33.4006 30.8549 33.411 30.8445 33.4214L25.2028 40.8186C24.9618 41.1515 24.9356 41.5 25.1242 41.8641C25.1556 41.9266 25.1949 41.9864 25.242 42.0436C25.2892 42.1008 25.3416 42.1529 25.3992 42.1997C25.4568 42.2465 25.5197 42.2855 25.5878 42.3167C25.6559 42.3479 25.7266 42.3713 25.7999 42.3869C25.8733 42.4025 25.9466 42.4104 26.0199 42.4104L28.9272 42.426L28 47.7788C27.9581 48.0077 27.9948 48.2235 28.11 48.4264C28.2253 48.6293 28.3877 48.7776 28.5972 48.8712C28.6601 48.9024 28.7255 48.9232 28.7936 48.9336C28.8617 48.944 28.9325 48.9492 29.0058 48.9492C29.3096 48.9492 29.5663 48.814 29.7758 48.5435L35.4175 40.522C35.6585 40.1891 35.6847 39.8406 35.4961 39.4764C35.3075 39.1123 35.0089 38.9302 34.6003 38.9302H31.6931L32.6045 34.2329C32.615 34.1912 32.6229 34.1522 32.6281 34.1158C32.6333 34.0794 32.636 34.0404 32.636 33.9988C32.636 33.9051 32.6229 33.8167 32.5967 33.7335C32.5705 33.6502 32.5364 33.5722 32.4945 33.4994C32.4526 33.4266 32.4029 33.3589 32.3452 33.2965C32.2876 33.2341 32.2221 33.1821 32.1488 33.1405C32.0755 33.0988 31.9969 33.065 31.9131 33.039C31.8293 33.013 31.7454 33 31.6616 33H31.6145Z" fill="#00A3FF"/>
</g>
<path d="M31.6145 33.9988H31.6302H31.6145ZM31.6145 33.9988L30.483 39.9134L34.6003 39.929L29.0058 47.9504L30.1373 41.4428L26.0199 41.4272L31.6145 33.9988ZM31.6145 33H31.5359C31.4521 33.0104 31.3788 33.0286 31.3159 33.0546C31.253 33.0806 31.1823 33.1196 31.1038 33.1717C31.0252 33.2237 30.9545 33.2861 30.8916 33.3589C30.8811 33.3693 30.8733 33.3797 30.868 33.3901C30.8628 33.4006 30.8549 33.411 30.8445 33.4214L25.2028 40.8186C24.9618 41.1515 24.9356 41.5 25.1242 41.8641C25.1556 41.9266 25.1949 41.9864 25.242 42.0436C25.2892 42.1008 25.3416 42.1529 25.3992 42.1997C25.4568 42.2465 25.5197 42.2855 25.5878 42.3167C25.6559 42.3479 25.7266 42.3713 25.7999 42.3869C25.8733 42.4025 25.9466 42.4104 26.0199 42.4104L28.9272 42.426L28 47.7788C27.9581 48.0077 27.9948 48.2235 28.11 48.4264C28.2253 48.6293 28.3877 48.7776 28.5972 48.8712C28.6601 48.9024 28.7255 48.9232 28.7936 48.9336C28.8617 48.944 28.9325 48.9492 29.0058 48.9492C29.3096 48.9492 29.5663 48.814 29.7758 48.5435L35.4175 40.522C35.6585 40.1891 35.6847 39.8406 35.4961 39.4764C35.3075 39.1123 35.0089 38.9302 34.6003 38.9302H31.6931L32.6045 34.2329C32.615 34.1912 32.6229 34.1522 32.6281 34.1158C32.6333 34.0794 32.636 34.0404 32.636 33.9988C32.636 33.9051 32.6229 33.8167 32.5967 33.7335C32.5705 33.6502 32.5364 33.5722 32.4945 33.4994C32.4526 33.4266 32.4029 33.3589 32.3452 33.2965C32.2876 33.2341 32.2221 33.1821 32.1488 33.1405C32.0755 33.0988 31.9969 33.065 31.9131 33.039C31.8293 33.013 31.7454 33 31.6616 33H31.6145Z" fill="#00A3FF"/>
<defs>
<filter id="filter0_f" x="0" y="8" width="60.6203" height="65.9492" filterUnits="userSpaceOnUse" color-interpolation-filters="sRGB">
<feFlood flood-opacity="0" result="BackgroundImageFix"/>
<feBlend mode="normal" in="SourceGraphic" in2="BackgroundImageFix" result="shape"/>
<feGaussianBlur stdDeviation="12.5" result="effect1_foregroundBlur"/>
</filter>
</defs>
</svg>
