<svg width="26" height="23" viewBox="0 0 26 23" fill="none" xmlns="http://www.w3.org/2000/svg">
<path opacity="0.1" d="M25.9425 3.53974C25.8853 3.39965 25.7885 3.27991 25.6643 3.19566C25.54 3.11142 25.394 3.06645 25.2446 3.06644H21.267C20.8396 2.26564 20.2341 1.57706 19.4985 1.05545C18.7629 0.533842 17.9175 0.193577 17.0296 0.0617059C16.1417 -0.0701655 15.2358 0.00999247 14.3838 0.295809C13.5317 0.581625 12.7572 1.06522 12.1216 1.70815C11.5733 2.25073 11.1375 2.89917 10.8398 3.61529C10.5421 4.33141 10.3886 5.10073 10.3883 5.87797V6.98351C5.19493 5.70968 1.69779 1.35548 1.66153 1.30973C1.57098 1.19487 1.44977 1.10887 1.31238 1.062C1.17498 1.01514 1.02721 1.00938 0.886675 1.04541C0.746145 1.08144 0.618797 1.15775 0.519824 1.26523C0.420852 1.3727 0.354435 1.50681 0.328499 1.65154C-0.274565 5.01725 -0.342929 9.83069 2.75473 13.6485C3.6849 14.7985 4.82533 15.7551 6.11325 16.4658C5.02509 18.2374 2.08028 19.1998 0.923631 19.4371C0.78955 19.4643 0.665258 19.528 0.564007 19.6212C0.462757 19.7145 0.388347 19.8339 0.348711 19.9667C0.309075 20.0995 0.3057 20.2408 0.338947 20.3754C0.372194 20.51 0.440816 20.6329 0.537493 20.731C0.628771 20.8237 2.82259 23 7.11492 23C11.5624 23 15.3695 21.3662 18.1249 18.2754C20.501 15.6099 21.8921 11.9695 21.9679 8.2429L25.7788 4.37528C25.8844 4.26805 25.9564 4.13143 25.9855 3.9827C26.0146 3.83398 25.9997 3.67982 25.9425 3.53974ZM20.6816 7.37988C20.6114 7.45109 20.5558 7.53561 20.5178 7.62864C20.4799 7.72166 20.4604 7.82137 20.4604 7.92205C20.4604 11.3844 19.2007 14.783 17.0044 17.2467C14.5436 20.0074 11.1236 21.4666 7.11492 21.4666C5.21634 21.4666 3.8206 20.9721 2.98399 20.5572C2.93078 20.5308 2.87912 20.5045 2.82901 20.4781C4.53635 19.8755 7.08332 18.6206 7.83154 16.3423C7.89335 16.1541 7.88084 15.9488 7.79664 15.7698C7.71245 15.5907 7.56313 15.4517 7.38006 15.3821C7.36193 15.3752 5.53638 14.6644 3.92107 12.6736C1.99353 10.2982 1.21333 7.21428 1.59355 3.4908C3.23466 5.13493 6.58878 7.92882 11.0196 8.67825C11.1278 8.69654 11.2386 8.6907 11.3444 8.66113C11.4502 8.63155 11.5483 8.57895 11.632 8.50699C11.7157 8.43502 11.783 8.34542 11.8291 8.2444C11.8752 8.14339 11.8991 8.03339 11.8991 7.92205V5.87784C11.9098 4.71934 12.3717 3.61218 13.184 2.79817C13.9962 1.98416 15.0929 1.52945 16.2344 1.53335C17.058 1.54491 17.8609 1.79686 18.5472 2.2591C19.2335 2.72134 19.7741 3.37432 20.1046 4.14004C20.1634 4.27666 20.2602 4.39291 20.3831 4.47456C20.506 4.55622 20.6496 4.59974 20.7965 4.59979H23.4208L20.6816 7.37988Z" fill="white"/>
</svg>
