<svg width="12" height="20" viewBox="0 0 12 20" fill="none" xmlns="http://www.w3.org/2000/svg">
<path opacity="0.1" d="M5.44143 20V17.8957H6.53452V20H5.44143ZM5.44143 15.2653C5.44143 10.5306 10.9069 8.95239 10.9069 5.79593C10.9091 4.58439 10.4287 3.41813 9.56458 2.53721C8.70047 1.65628 7.51839 1.12772 6.26165 1.06031C5.00491 0.992908 3.76915 1.39179 2.8087 2.17485C1.84826 2.95791 1.23622 4.06558 1.09856 5.26985H0C0.138366 3.78506 0.866695 2.40894 2.03319 1.42831C3.19969 0.44767 4.71436 -0.0618288 6.26152 0.00599818C7.80867 0.0738252 9.26896 0.713745 10.338 1.79239C11.4071 2.87103 12.0024 4.30518 12 5.79593C12 9.47847 6.53452 10.5306 6.53452 15.2653V15.7914H5.44143V15.2653Z" fill="white"/>
</svg>
