<svg width="30" height="23" viewBox="0 0 30 23" fill="none" xmlns="http://www.w3.org/2000/svg">
<path opacity="0.1" d="M19.7526 11.0421L13.086 6.63991C13.0023 6.58465 12.9051 6.55293 12.8046 6.54811C12.7042 6.5433 12.6043 6.56558 12.5157 6.61257C12.427 6.65957 12.3529 6.72951 12.3012 6.81496C12.2495 6.9004 12.2222 6.99814 12.2222 7.09774V15.9022C12.2222 16.0018 12.2495 16.0996 12.3012 16.185C12.3529 16.2704 12.427 16.3404 12.5157 16.3874C12.6043 16.4344 12.7042 16.4567 12.8046 16.4518C12.9051 16.447 13.0023 16.4153 13.086 16.3601L19.7526 11.9578C19.8287 11.9076 19.8911 11.8395 19.9343 11.7596C19.9774 11.6797 20 11.5906 20 11.5C20 11.4094 19.9774 11.3202 19.9343 11.2403C19.8911 11.1605 19.8287 11.0924 19.7526 11.0421ZM13.3333 14.874V8.12594L18.4431 11.5L13.3333 14.874ZM29.2306 3.6318C29.1211 3.21021 28.912 2.82044 28.6205 2.49465C28.3291 2.16887 27.9636 1.9164 27.5542 1.7581C22.8608 -0.0285231 15.3156 -0.00128415 15.0035 0.000229115C14.6849 -0.00155929 7.13931 -0.0286606 2.44569 1.75796C2.03636 1.9163 1.6709 2.16878 1.37947 2.49456C1.08804 2.82035 0.878998 3.2101 0.769583 3.63166C0.418472 4.96664 0 7.41553 0 11.5C0 15.5846 0.418472 18.0333 0.769445 19.3683C0.878887 19.7899 1.08797 20.1797 1.37945 20.5054C1.67093 20.8312 2.03645 21.0837 2.44583 21.242C7.13917 23.0285 14.6844 23.0015 14.9965 22.9997C15.0121 22.9997 15.0451 23 15.0947 23C16.0507 23 23.0915 22.9407 27.5543 21.242C27.9636 21.0837 28.3291 20.8312 28.6205 20.5054C28.912 20.1796 29.121 19.7899 29.2304 19.3683C29.5815 18.0333 30 15.5844 30 11.5C30 7.41539 29.5815 4.96664 29.2306 3.63166V3.6318ZM28.1553 19.091C28.0905 19.3433 27.9661 19.5768 27.7923 19.7722C27.6185 19.9676 27.4003 20.1192 27.1557 20.2146C22.6593 21.9261 15.0799 21.9004 14.9965 21.8992C14.9201 21.8992 7.34069 21.9261 2.84431 20.2146C2.59968 20.1192 2.38147 19.9675 2.20767 19.7721C2.03387 19.5767 1.90947 19.3432 1.84472 19.0908C1.51 17.8182 1.11111 15.468 1.11111 11.5C1.11111 7.53205 1.51014 5.1818 1.84472 3.909C1.90947 3.65663 2.03387 3.42312 2.20767 3.22774C2.38147 3.03237 2.59969 2.88073 2.84431 2.78533C7.34083 1.07382 14.9204 1.10106 15.0035 1.10079C15.0793 1.09983 22.6593 1.07369 27.1557 2.78533C27.4003 2.88076 27.6185 3.03243 27.7923 3.22782C27.9661 3.42322 28.0905 3.65675 28.1553 3.90914C28.49 5.1818 28.8889 7.53191 28.8889 11.5C28.8889 15.4679 28.4899 17.8182 28.1553 19.091Z" fill="white"/>
</svg>
